<?xml version="1.0" encoding="UTF-8"?>
<svg xmlns="http://www.w3.org/2000/svg" xmlns:xlink="http://www.w3.org/1999/xlink" width="16pt" height="16pt" viewBox="0 0 16 16" version="1.1">
<g id="surface1">
<path style=" stroke:none;fill-rule:nonzero;fill:rgb(0%,0%,0%);fill-opacity:1;" d="M 15.488281 14.574219 L 11.679688 10.613281 C 12.660156 9.449219 13.195312 7.984375 13.195312 6.460938 C 13.195312 2.898438 10.296875 0 6.738281 0 C 3.175781 0 0.277344 2.898438 0.277344 6.460938 C 0.277344 10.023438 3.175781 12.921875 6.738281 12.921875 C 8.074219 12.921875 9.347656 12.515625 10.4375 11.75 L 14.273438 15.742188 C 14.433594 15.90625 14.652344 16 14.882812 16 C 15.101562 16 15.308594 15.917969 15.464844 15.765625 C 15.800781 15.441406 15.8125 14.910156 15.488281 14.574219 Z M 6.738281 1.683594 C 9.371094 1.683594 11.511719 3.828125 11.511719 6.460938 C 11.511719 9.09375 9.371094 11.234375 6.738281 11.234375 C 4.101562 11.234375 1.960938 9.09375 1.960938 6.460938 C 1.960938 3.828125 4.101562 1.683594 6.738281 1.683594 Z M 6.738281 1.683594 "/>
</g>
</svg>
